<svg width="329" height="90" viewBox="0 0 329 90" fill="none" xmlns="http://www.w3.org/2000/svg">
<path d="M24.8193 53.8037H45.7617C49.4089 51.7814 51.8788 47.8944 51.8789 43.4287C51.8789 36.8799 46.5695 31.5703 40.0205 31.5703H31.498L32.6094 25.6416H40.0205C49.844 25.6416 57.8076 33.6055 57.8076 43.4287C57.8075 48.5375 55.6496 53.1388 52.2002 56.3828C57.3389 59.5014 60.7725 65.1496 60.7725 71.5996C60.7722 81.1743 53.2062 88.9796 43.7266 89.3682V89.377H43.5195C43.3421 89.3821 43.1639 89.3857 42.9854 89.3857V89.377H11.8584L24.457 25.6416H30.3857L24.8193 53.8037ZM104.786 43.1289C109 40.12 114.166 38.342 119.754 38.3418C133.926 38.3418 145.414 49.741 145.415 63.8027C145.415 77.865 133.926 89.2676 119.754 89.2676C105.582 89.2671 94.0928 77.8647 94.0928 63.8027V25.6123H104.786V43.1289ZM177.493 63.8027C177.493 72.0054 184.195 78.6566 192.462 78.6572C200.729 78.6572 207.434 72.0057 207.434 63.8027V40.4639H218.126V63.8027C218.126 77.865 206.634 89.2675 192.462 89.2676C178.29 89.267 166.801 77.8646 166.801 63.8027V40.4639H177.493V63.8027ZM265.173 39.4043C279.344 39.4053 290.834 50.8037 290.834 64.8652V88.2041H280.141V64.8652C280.14 56.663 273.439 50.0117 265.173 50.0107C256.906 50.0107 250.201 56.6624 250.201 64.8652V88.2041H239.508V64.8652C239.508 50.8031 251.001 39.4043 265.173 39.4043ZM326.759 88.2041H316.065V40.4639H326.759V88.2041ZM5.1875 76.0371C8.05264 76.0371 10.3759 78.3596 10.376 81.2246C10.376 84.0897 8.05269 86.4121 5.1875 86.4121C2.32248 86.4119 0 84.0896 0 81.2246C8.80264e-05 78.3597 2.32254 76.0373 5.1875 76.0371ZM40.749 68.5996C40.9258 68.6122 41.1049 68.6329 41.2832 68.6719C43.2815 69.1099 44.5473 71.0855 44.1104 73.084C43.6726 75.083 41.6955 76.3488 39.6963 75.9111C39.5185 75.8722 39.3472 75.8171 39.1816 75.7549L38.543 78.6699C38.7128 78.7215 38.8861 78.7691 39.0625 78.8076C42.6609 79.5955 46.2169 77.3163 47.0049 73.7178C47.7921 70.12 45.5149 66.5635 41.917 65.7754C41.7406 65.7369 41.5635 65.7087 41.3877 65.6846L40.749 68.5996ZM119.754 48.9512C111.487 48.9517 104.787 55.6005 104.786 63.8027C104.786 72.0055 111.487 78.6567 119.754 78.6572C128.021 78.6572 134.723 72.0058 134.723 63.8027C134.722 55.6003 128.021 48.9512 119.754 48.9512ZM41.5029 38.9814C43.1402 38.9814 44.4678 40.309 44.4678 41.9463C44.4677 43.5835 43.1402 44.9102 41.5029 44.9102C39.8657 44.9101 38.5381 43.5835 38.5381 41.9463C38.5381 40.3091 39.8657 38.9815 41.5029 38.9814ZM321.414 22.4268C325.547 22.4273 328.896 25.7534 328.896 29.8545C328.896 33.9556 325.547 37.2807 321.414 37.2812C317.28 37.2812 313.928 33.9559 313.928 29.8545C313.928 25.7531 317.28 22.4268 321.414 22.4268ZM30.3857 23.7148H24.457L15.5635 19.2686L13.3398 7.85547H16.3047L30.3857 23.7148ZM39.2793 12.5986L37.7979 23.7148H32.6094L26.3838 16.3047L25.1982 0H28.1631L39.2793 12.5986Z" fill="#312F37"/>
</svg>
