<svg width="24" height="24" viewBox="0 0 24 24" fill="none" xmlns="http://www.w3.org/2000/svg">
<path d="M24 14.5C24 19.7467 19.7467 24 14.5 24C9.25329 24 5 19.7467 5 14.5C5 9.25329 9.25329 5 14.5 5C19.7467 5 24 9.25329 24 14.5Z" fill="#8DC99F"/>
<path d="M9.59785 1.36242C11.7474 0.876753 13.9903 1.05476 16.0314 1.8673L16.4367 2.0382L16.5187 2.07922C16.9146 2.306 17.0824 2.801 16.8928 3.22668C16.7031 3.65214 16.2234 3.85739 15.7902 3.71496L15.7043 3.68176L15.3654 3.53918C13.6615 2.86096 11.7888 2.71285 9.99433 3.11828C8.08041 3.5508 6.3571 4.59054 5.08222 6.08215C3.80745 7.5738 3.04921 9.43771 2.92011 11.3956C2.79102 13.3537 3.29836 15.3012 4.3664 16.9474C5.43446 18.5935 7.00622 19.8504 8.84687 20.5304C10.6875 21.2103 12.6986 21.2772 14.5803 20.7208C16.4621 20.1644 18.1133 19.0142 19.2883 17.4425C20.4631 15.871 21.0985 13.9622 21.0998 12.0001V11.0802C21.0998 10.5831 21.5031 10.1798 22.0002 10.1798C22.4972 10.1798 22.9006 10.5831 22.9006 11.0802V12.0001L22.8908 12.4405C22.8009 14.6353 22.05 16.7558 20.7307 18.5206C19.3233 20.4032 17.345 21.7809 15.091 22.4474C12.837 23.1138 10.4277 23.0334 8.22284 22.2189C6.018 21.4043 4.13498 19.8987 2.85566 17.9269C1.5765 15.9552 0.969647 13.6227 1.12421 11.2775C1.27886 8.93209 2.18693 6.699 3.71406 4.91223C5.24118 3.12549 7.30522 1.88046 9.59785 1.36242ZM21.4318 3.30187C21.7851 3.01351 22.3063 3.0342 22.6359 3.3634C22.9656 3.69274 22.9866 4.21386 22.6984 4.5675L22.6369 4.63586L12.6369 14.6456C12.4682 14.8145 12.239 14.9102 12.0002 14.9103C11.7615 14.9103 11.5323 14.8154 11.3635 14.6466L8.36347 11.6466L8.30195 11.5782C8.01355 11.2247 8.03393 10.7027 8.36347 10.3732C8.69301 10.0437 9.21507 10.0232 9.56855 10.3116L9.63691 10.3732L12.0002 12.7364L21.3635 3.36437L21.4318 3.30187Z" fill="#1E1E1E"/>
</svg>
