<svg width="96" height="96" viewBox="0 0 96 96" fill="none" xmlns="http://www.w3.org/2000/svg">
<path d="M69.6003 57.4C68.4003 54 66.6003 51 64.4003 48.2C63.8003 47.6 63.0003 47.4 62.2003 47.6L60.8003 48.2C59.6003 48.6 58.4003 48.8 57.0003 48.6C53.8003 48.2 51.6003 45.8 51.2003 42.8L51.0003 41C50.8003 40.2 50.2003 39.6 49.4003 39.4C47.6003 39 46.0003 38.8 44.2003 38.8C42.4003 38.8 40.6003 39 39.0003 39.4C38.2003 39.6 37.6003 40.2 37.4003 41L37.2003 42.6C36.8003 45.6 34.4003 48 31.4003 48.4C30.2003 48.6 28.8003 48.4 27.6003 48L26.0003 47.6C25.2003 47.4 24.4003 47.6 23.8003 48.2C21.4003 50.8 19.6003 54 18.6003 57.4C18.4003 58.2 18.6003 59 19.2003 59.6L20.6003 60.6C22.0003 62 23.0003 64 23.0003 66C23.0003 68 22.0003 70 20.4003 71.4L19.0003 72.4C18.4003 73 18.0003 73.8 18.4003 74.6C19.6003 78 21.4003 81 23.6003 83.8C24.2003 84.4 25.0003 84.6 25.8003 84.4L27.2003 83.8C28.4003 83.4 29.6003 83.2 31.0003 83.4C34.2003 83.8 36.4003 86.2 36.8003 89.2L37.0003 91C37.2003 91.8 37.8003 92.4 38.6003 92.6C40.4003 93 42.0003 93.2 43.8003 93.2C45.6003 93.2 47.4003 93 49.0003 92.6C49.8003 92.4 50.4003 91.8 50.6003 91L50.8003 89.4C51.2003 86.4 53.6003 84 56.6003 83.6C57.8003 83.4 59.2003 83.6 60.4003 84L61.8003 84.6C62.6003 84.8 63.4003 84.6 64.0003 84C66.4003 81.4 68.2003 78.2 69.2003 74.8C69.4003 74 69.2003 73.2 68.6003 72.6L67.2003 71.6C66.0003 70 65.0003 68 65.0003 66C65.0003 64 66.0003 62 67.6003 60.6L69.0003 59.6C69.6003 59 69.8003 58.2 69.6003 57.4Z" fill="#FEF7EB"/>
<path d="M95.7999 29.8C95 27.4 93.7999 25.4 92.1999 23.4C91.7999 23 91.1999 22.8 90.5999 23L89.5999 23.4C88.7999 23.8 87.7999 23.8 86.9999 23.8C84.7999 23.4 83.1999 21.8 82.9999 19.8L82.7999 18.6C82.7999 18 82.1999 17.6 81.7999 17.4C80.5999 17.2 79.3999 17 78.1999 17C76.9999 17 75.7999 17.2 74.5999 17.4C73.9999 17.6 73.5999 18 73.5999 18.6L73.3999 19.8C72.9999 21.8 71.3999 23.4 69.3999 23.8C68.5999 24 67.5999 23.8 66.7999 23.4L65.7999 23C65.1999 22.8 64.5999 23 64.1999 23.4C62.5999 25.2 61.3999 27.4 60.5999 29.8C60.3999 30.4 60.5999 31 60.9999 31.4L61.9999 32.2C63.1999 33.2 63.7999 34.6 63.7999 36C63.7999 37.4 63.1999 38.8 61.9999 39.8L60.9999 40.6C60.5999 41 60.3999 41.6 60.5999 42.2C61.3999 44.6 62.5999 46.6 64.1999 48.6C64.5999 49 65.1999 49.2 65.7999 49L66.7999 48.6C67.5999 48.2 68.5999 48.2 69.3999 48.2C71.5999 48.6 73.1999 50.2 73.3999 52.2L73.5999 53.4C73.5999 54 74.1999 54.4 74.5999 54.6C75.7999 54.8 76.9999 55 78.1999 55C79.3999 55 80.5999 54.8 81.7999 54.6C82.4 54.4 82.7999 54 82.7999 53.4L82.9999 52.2C83.3999 50.2 84.9999 48.6 86.9999 48.2C87.7999 48 88.7999 48.2 89.5999 48.6L90.5999 49C91.1999 49.2 91.7999 49 92.1999 48.6C93.7999 46.8 95 44.6 95.7999 42.2C96 41.6 95.7999 41 95.3999 40.6L94.3999 39.8C93.1999 38.8 92.5999 37.4 92.5999 36C92.5999 34.6 93.1999 33.2 94.3999 32.2L95.3999 31.4C95.7999 30.8 96 30.2 95.7999 29.8Z" fill="#FEF7EB"/>
<path d="M70 33C72.7614 33 75 30.7614 75 28C75 25.2386 72.7614 23 70 23C67.2386 23 65 25.2386 65 28C65 30.7614 67.2386 33 70 33Z" fill="#18193F"/>
<path d="M55.4004 76.8C58.4004 73.6 60.8004 69.8 62.0004 65.4L59.6004 63.4C58.0004 62 57.0004 60 57.0004 58C57.0004 56 58.0004 54 59.6004 52.6L62.0004 50.6C60.8004 46.2 58.4004 42.4 55.4004 39.2L52.6004 40.2C50.6004 41 48.4004 40.8 46.6004 39.8C44.8004 38.8 43.6004 37 43.2004 34.8L42.6004 31.8C40.4004 31.2 38.2004 31 36.0004 31C33.8004 31 31.6004 31.4 29.4004 31.8" stroke="#18193F" stroke-width="6" stroke-linecap="round" stroke-linejoin="round"/>
<path d="M25.6 39.8C23.8 40.8 21.6 41 19.6 40.2L16.8 39.2C13.8 42.4 11.4 46.2 10.2 50.6L12.6 52.6C14 54 15 56 15 58C15 60 14 62 12.4 63.4L10 65.4C11.2 69.8 13.6 73.6 16.6 76.8L19.4 75.8C21.4 75 23.6 75.2 25.4 76.2C27.2 77.2 28.4 79 28.8 81.2L29.2 84.2C31.4 84.8 33.6 85 35.8 85C38 85 40.2 84.6 42.4 84.2L42.8 81.2C43.2 79.2 44.4 77.4 46.2 76.2" stroke="#18193F" stroke-width="6" stroke-linecap="round" stroke-linejoin="round"/>
<path d="M36 67C40.9706 67 45 62.9706 45 58C45 53.0294 40.9706 49 36 49C31.0294 49 27 53.0294 27 58C27 62.9706 31.0294 67 36 67Z" stroke="#18193F" stroke-width="6"/>
<path d="M70 46.4C71.6 46.4 73.2 46.2 74.6 45.8L75 43.6C75.2 42.2 76.2 41 77.4 40.2C78.6 39.4 80.2 39.4 81.6 39.8L83.6 40.6C85.8 38.4 87.4 35.8 88.2 32.6L86.6 31.2C85.4 30.2 84.8 28.8 84.8 27.4C84.8 26 85.4 24.6 86.6 23.6L88.2 22.2C87.4 19.2 85.8 16.4 83.6 14.2L81.6 15C80 16 78.6 15.8 77.2 15.2C76 14.4 75 13.2 74.8 11.8L74.4 9.6C73 9.2 71.4 9 69.8 9C68.2 9 66.6 9.2 65.2 9.6L64.8 11.8C64.6 13.2 63.6 14.4 62.4 15.2C61.4 15.8 60 16 58.6 15.4L56.6 14.6C54.4 16.8 52.8 19.4 52 22.6L53.6 24C54.8 25 55.4 26.4 55.4 27.8" stroke="#18193F" stroke-width="6" stroke-linecap="round" stroke-linejoin="round"/>
</svg>
