<svg width="96" height="96" viewBox="0 0 96 96" fill="none" xmlns="http://www.w3.org/2000/svg">
<path d="M83.6 88H26.4C21.8 88 18 84.2 18 79.6V30.4C18 25.8 21.8 22 26.4 22H83.4C88 22 91.8 25.8 91.8 30.4V79.4C92 84.2 88.2 88 83.6 88Z" fill="#8DC99F"/>
<path d="M85.0004 46.2V72.4C85.0004 77 81.2004 80.8 76.6004 80.8H19.4004" stroke="#18193F" stroke-width="6" stroke-miterlimit="10" stroke-linecap="round" stroke-linejoin="round"/>
<path d="M11 54.8V23.4C11 18.8 14.8 15 19.4 15H76.4C81 15 84.8 18.8 84.8 23.4V33.2" stroke="#18193F" stroke-width="6" stroke-miterlimit="10" stroke-linecap="round" stroke-linejoin="round"/>
<path d="M37.5996 39C40.9133 39 43.5996 36.3137 43.5996 33C43.5996 29.6863 40.9133 27 37.5996 27C34.2859 27 31.5996 29.6863 31.5996 33C31.5996 36.3137 34.2859 39 37.5996 39Z" stroke="#18193F" stroke-width="6" stroke-miterlimit="10"/>
<path d="M54.2002 58.4L58.6002 53.2C60.6002 51 64.0002 51 66.0002 53.2L83.6002 74" stroke="#18193F" stroke-width="6" stroke-miterlimit="10" stroke-linecap="round" stroke-linejoin="round"/>
<path d="M52.2 72.4L36 53.2C34 51 30.6 51 28.6 53.2L12.6 70.2C8.60002 74.4 11.6 81.2 17.4 81.2H35" stroke="#18193F" stroke-width="6" stroke-miterlimit="10" stroke-linecap="round" stroke-linejoin="round"/>
</svg>
