<svg width="96" height="96" viewBox="0 0 96 96" fill="none" xmlns="http://www.w3.org/2000/svg">
<path d="M81.3996 64C76.9996 64 72.9996 61.2 72.1996 56.8C70.9996 51 75.3996 46 80.9996 46C82.3996 46 84.1996 46 85.9996 46V30C85.9996 27.8 84.1996 26 81.9996 26H65.9996V23.4C65.9996 19 63.1996 15 58.7996 14.2C52.9996 13 47.9996 17.4 47.9996 23C47.9996 24 47.9996 25 47.9996 26H31.9996C29.7996 26 27.9996 27.8 27.9996 30V46H25.3996C20.9996 46 16.9996 48.8 16.1996 53.2C14.9996 59 19.3996 64 24.9996 64C25.5996 64 26.7996 64 27.9996 64V80C27.9996 82.2 29.7996 84 31.9996 84H47.9996V86.6C47.9996 91 50.7996 95 55.1996 95.8C60.9996 97 65.9996 92.6 65.9996 87C65.9996 86.4 65.9996 85.2 65.9996 84H81.9996C84.1996 84 85.9996 82.2 85.9996 80V64H81.3996Z" fill="#D9D3F7"/>
<path d="M70.2 77H75C77.2 77 79 75.2 79 73V57C76.8 57 74.8 57 74 57C69 57 65 53 65 48C65 43 69 39 74 39C75.4 39 77.2 39 79 39V23C79 20.8 77.2 19 75 19H59C59 17.8 59 16.6 59 16C59 11 55 7 50 7C45 7 41 11 41 16C41 17 41 18 41 19" stroke="#18193F" stroke-width="6" stroke-miterlimit="10" stroke-linecap="round" stroke-linejoin="round"/>
<path d="M29.2 19H25C22.8 19 21 20.8 21 23V39C20 39 18.8 39 18 39C13 39 9 43 9 48C9 53 13 57 18 57C18.6 57 19.8 57 21 57V73C21 75.2 22.8 77 25 77H41C41 78 41 79 41 80C41 85 45 89 50 89C55 89 59 85 59 80C59 79.4 59 78.2 59 77" stroke="#18193F" stroke-width="6" stroke-miterlimit="10" stroke-linecap="round" stroke-linejoin="round"/>
</svg>
